
<svg xmlns="http://www.w3.org/2000/svg" version="1.1" xmlns:xlink="http://www.w3.org/1999/xlink" preserveAspectRatio="none" x="0px" y="0px" width="318px" height="40px" viewBox="0 0 318 40">
<defs>
<g id="Symbol_1_0_Layer0_0_FILL">
<path fill="#FFFFFF" stroke="none" d="
M 318 40.1
L 318 23.7
Q 317.265234375 14.282421875 311.85 8.1 306.485546875 1.9638671875 295.65 2.6 284.865625 3.2451171875 279.4 16 277.2279296875 7.325390625 266.45 9.2 255.722265625 11.071484375 254.4 19.7 248.0794921875 14.203515625 240.1 15.2 232.1705078125 16.246484375 229.25 22.2 227.3853515625 11.9029296875 218.15 8.3 208.9048828125 4.7490234375 201.25 7.75 193.55 10.7 190.8 19.7 184.75 13.1 176.1 14.4 167.4 15.65 165.65 22.2 163.6 15.15 157.3 10.6 150.95 6 142 6.95 133.05 7.85 130.15 13.75 127.5 6.5 119 2 110.45 -2.55 99.4 3.25 88.35 9.05 85.4 22.2 81.55 14.7 73.3 15.2 65 15.65 63.4 23.7 60.15 5.55 45.1 6.25 30.05 6.95 25.15 22.2 22.95 17.05 14.4 15.7 5.8 14.3 0 23.3
L 0 40.1 318 40.1 Z"/>
</g>
</defs>

<g transform="matrix( 1, 0, 0, 1, 0,0) ">
<g transform="matrix( 1, 0, 0, 1, 0,0) ">
<use xlink:href="#Symbol_1_0_Layer0_0_FILL"/>
</g>
</g>
</svg>
