
<svg xmlns="http://www.w3.org/2000/svg" version="1.1" xmlns:xlink="http://www.w3.org/1999/xlink" preserveAspectRatio="none" x="0px" y="0px" width="128px" height="128px" viewBox="0 0 128 128">
<defs>
<g id="missing_0_Layer1_0_FILL">
<path fill="#183A65" stroke="none" d="
M 128 128
L 128 115.95 119.65 112.25 119.65 120.6 112.5 108.9 105.8 123.45 98.15 118.9 92.9 128 128 128
M 0 105.8
L 0 128 34.6 128 30.35 120.8 22.7 124.4 20.1 111.25 11.95 114.85 11.95 101.25 0 105.8
M 119.15 62.8
L 112.25 73.55 103.15 62.35 98.15 67.8 92.2 58.05 80 104.1 76.2 94.55 64.5 105.05 54.45 100.55 49.95 106.75 42.55 60.9 37.3 70.9 30.1 40.35 24.4 52.55 12.9 41.8 0 49.8 0 71.5 7.65 66.15 12.2 85.75 19.85 76.4 22.7 102.45 27.25 97.65 38.95 118.9 44.2 111.5 55.65 120.35 62.1 110.3 74.5 119.65 77.85 112.25 83.1 116.75 98.65 81.9 107.25 106.75 117.5 97.45 122.05 104.85 125.4 85.25 128 88.3 128 80.15 119.15 62.8
M 128 32.3
L 128 16.75 117.25 24.6 107.25 7.9 94.6 25.1 90.5 16.7 85.5 26.05 67.1 7.15 48.75 18.4 42.05 7.65 35.15 14.8 29.4 7.4 9.8 20.05 0 8.65 0 26.5 10.75 34.15 22.25 25.8 29.4 30.1 62.6 19.35 103.15 48.25 111.55 33.45 117.25 49.9 128 32.3 Z"/>

<path fill="#102256" stroke="none" d="
M 128 88.3
L 125.4 85.25 122.05 104.85 117.5 97.45 107.25 106.75 98.65 81.9 83.1 116.75 77.85 112.25 74.5 119.65 62.1 110.3 55.65 120.35 44.2 111.5 38.95 118.9 27.25 97.65 22.7 102.45 19.85 76.4 12.2 85.75 7.65 66.15 0 71.5 0 105.8 11.95 101.25 11.95 114.85 20.1 111.25 22.7 124.4 30.35 120.8 34.6 128 92.9 128 98.15 118.9 105.8 123.45 112.5 108.9 119.65 120.6 119.65 112.25 128 115.95 128 88.3
M 111.55 33.45
L 103.15 48.25 62.6 19.35 29.4 30.1 22.25 25.8 10.75 34.15 0 26.5 0 49.8 12.9 41.8 24.4 52.55 30.1 40.35 37.3 70.9 42.55 60.9 49.95 106.75 54.45 100.55 64.5 105.05 76.2 94.55 80 104.1 92.2 58.05 98.15 67.8 103.15 62.35 112.25 73.55 119.15 62.8 128 80.15 128 32.3 117.25 49.9 111.55 33.45
M 128 16.75
L 128 0 0 0 0 8.65 9.8 20.05 29.4 7.4 35.15 14.8 42.05 7.65 48.75 18.4 67.1 7.15 85.5 26.05 90.5 16.7 94.6 25.1 107.25 7.9 117.25 24.6 128 16.75 Z"/>
</g>

<g id="missing_0_Layer0_0_FILL">
<path fill="#1E5577" stroke="none" d="
M 59.85 82.65
L 51.6 85.15 59.55 88.5 68.7 85 59.85 82.65
M 85.2 55.15
L 88.8 45.05 59.6 29.75 36.5 44 42.2 54 60.6 41.6 74.9 47.8 73.5 53.55 55.95 59.25 55.6 60.85
Q 67.66953125 61.926171875 85.2 55.15 Z"/>

<path fill="#183A65" stroke="none" d="
M 52.9 93.2
L 60.3 97.5 67.6 93.95 68.7 85 59.55 88.5 51.6 85.15 52.9 93.2
M 84.2 58
L 85.2 55.15
Q 67.66953125 61.926171875 55.6 60.85
L 52.35 76.55 68.05 78.15 64.9 63.15 84.2 58 Z"/>
</g>
</defs>

<g transform="matrix( 1, 0, 0, 1, 0,0) ">
<g transform="matrix( 1, 0, 0, 1, 0,0) ">
<use xlink:href="#missing_0_Layer1_0_FILL"/>
</g>

<g transform="matrix( 1, 0, 0, 1, 0,0) ">
<use xlink:href="#missing_0_Layer0_0_FILL"/>
</g>
</g>
</svg>
