
<svg xmlns="http://www.w3.org/2000/svg" version="1.1" xmlns:xlink="http://www.w3.org/1999/xlink" preserveAspectRatio="none" x="0px" y="0px" width="128px" height="128px" viewBox="0 0 128 128">
<defs>
<g id="missing_3_Layer3_0_FILL">
<path fill="#65C2FF" stroke="none" d="
M 0 128
L 128 128 128 0 0 0 0 128 Z"/>
</g>

<g id="missing_3_Layer2_0_FILL">
<path fill="#92D2FF" stroke="none" d="
M 105.7 74.65
Q 90.25 74.05 83.35 90 77.7 82.15 71.75 82.25
L 71.15 97.1 61.1 103.05 51.1 96.4 50.2 87.6
Q 47.55 89.4 45.9 93.7 45.95 84.15 37.9 82.4 29.8 80.65 24.15 89.1 21.9 63.3 0 67.35
L 0 128 128 128 128 67.4
Q 124.05 60.15 115.35 61.85 106.85 63.35 105.7 74.65 Z"/>

<path fill="#2C89E9" stroke="none" d="
M 128 33.55
L 128 0 0 0 0 35.1
Q 4.25 25.65 12.95 27.75 21.6 29.85 20.7 42.2 26.9 32.9 34.5 33.85 42.1 34.75 45.95 41.2 52.7 32.55 61.9 33.7 71.1 34.85 75.25 41.25 78.8 34.25 86.4 35.45 94 36.65 95.25 44.35 95.35 37.95 100.25 36.75 105.15 35.6 108.15 40.15 105.85 30.05 114.7 27.7 123.5 25.35 128 33.55 Z"/>
</g>

<g id="missing_3_Layer0_0_FILL">
<path fill="#ADDDFF" stroke="none" d="
M 52.6 87.5
L 60.55 90.85 69.7 87.35 60.85 85 52.6 87.5
M 86.2 57.5
L 92.9 43.2 60.6 28.15 35.15 46.35 43.2 56.35 61.6 43.95 75.9 50.15 74.5 55.9 56.95 61.6 56.6 63.25
Q 68.65 64.3 86.2 57.5 Z"/>

<path fill="#9BD6FF" stroke="none" d="
M 52.6 87.5
L 53.9 95.55 61.3 99.85 68.6 96.3 69.7 87.35 60.55 90.85 52.6 87.5
M 85.2 60.35
L 86.2 57.5
Q 68.65 64.3 56.6 63.25
L 53.35 78.9 69.05 80.5 65.9 65.5 85.2 60.35 Z"/>
</g>
</defs>

<g transform="matrix( 1, 0, 0, 1, 0,0) ">
<g transform="matrix( 1, 0, 0, 1, 0,0) ">
<use xlink:href="#missing_3_Layer3_0_FILL"/>
</g>

<g transform="matrix( 1, 0, 0, 1, 0,0) ">
<use xlink:href="#missing_3_Layer2_0_FILL"/>
</g>

<g transform="matrix( 1, 0, 0, 1, 0,0) ">
<use xlink:href="#missing_3_Layer0_0_FILL"/>
</g>
</g>
</svg>
